{
  "accessors": [
    {
      "bufferView": 2,
      "componentType": 5126,
      "count": 139,
      "max": [
        1.0,
        0.09177380055189133,
        0.11697500199079514
      ],
      "min": [
        -0.5063769817352295,
        -0.674871027469635,
        -0.6343100070953369
      ],
      "type": "VEC3"
    },
    {
      "bufferView": 2,
      "byteOffset": 1668,
      "componentType": 5126,
      "count": 139,
      "max": [
        0.9472651481628418,
        0.4366852939128876,
        0.16350233554840088
      ],
      "min": [
        -0.5510938167572021,
        -0.11199698597192764,
        -0.9933694005012512
      ],
      "type": "VEC3"
    },
    {
      "bufferView": 3,
      "componentType": 5126,
      "count": 139,
      "max": [
        0.012479100376367569,
        0.39836201071739197,
        0.541612982749939,
        1.0
      ],
      "min": [
        -0.988215982913971,
        0.11945699900388718,
        -0.9313629865646362,
        1.0
      ],
      "type": "VEC4"
    },
    {
      "bufferView": 1,
      "componentType": 5126,
      "count": 139,
      "max": [
        0.5295619964599609,
        0.31048598885536194
      ],
      "min": [
        0.004431679844856262,
        0.1116819977760315
      ],
      "type": "VEC2"
    },
    {
      "bufferView": 0,
      "componentType": 5125,
      "count": 492,
      "type": "SCALAR"
    },
    {
      "bufferView": 2,
      "byteOffset": 3336,
      "componentType": 5126,
      "count": 1805,
      "max": [
        0.9672769904136658,
        0.674871027469635,
        0.7562230229377747
      ],
      "min": [
        -1.0,
        -0.6548280119895935,
        -0.7562230229377747
      ],
      "type": "VEC3"
    },
    {
      "bufferView": 2,
      "byteOffset": 24996,
      "componentType": 5126,
      "count": 1805,
      "max": [
        0.9872137904167175,
        0.9986312985420227,
        0.9979549646377563
      ],
      "min": [
        -0.9992663860321045,
        -0.9953135251998901,
        -0.9979549646377563
      ],
      "type": "VEC3"
    },
    {
      "bufferView": 3,
      "byteOffset": 2224,
      "componentType": 5126,
      "count": 1805,
      "max": [
        0.9925040006637573,
        0.9995840191841125,
        0.9999439716339111,
        1.0
      ],
      "min": [
        -0.9998469948768616,
        -0.987205982208252,
        -0.999925971031189,
        1.0
      ],
      "type": "VEC4"
    },
    {
      "bufferView": 1,
      "byteOffset": 1112,
      "componentType": 5126,
      "count": 1805,
      "max": [
        0.9927979707717896,
        0.993520975112915
      ],
      "min": [
        0.0051707797683775425,
        0.11433299630880356
      ],
      "type": "VEC2"
    },
    {
      "bufferView": 0,
      "byteOffset": 1968,
      "componentType": 5125,
      "count": 10002,
      "type": "SCALAR"
    },
    {
      "bufferView": 2,
      "byteOffset": 46656,
      "componentType": 5126,
      "count": 143,
      "max": [
        0.9755330085754395,
        0.09177380055189133,
        0.6343100070953369
      ],
      "min": [
        -0.5063769817352295,
        -0.6147059798240662,
        -0.201882004737854
      ],
      "type": "VEC3"
    },
    {
      "bufferView": 2,
      "byteOffset": 48372,
      "componentType": 5126,
      "count": 143,
      "max": [
        0.9151096940040588,
        0.43458765745162964,
        0.9933694005012512
      ],
      "min": [
        -0.5510938167572021,
        -0.11199698597192764,
        -0.41699931025505066
      ],
      "type": "VEC3"
    },
    {
      "bufferView": 3,
      "byteOffset": 31104,
      "componentType": 5126,
      "count": 143,
      "max": [
        0.44987499713897705,
        -0.01812859997153282,
        0.9795089960098267,
        1.0
      ],
      "min": [
        -0.9060419797897339,
        -0.4544459879398346,
        -0.5154910087585449,
        1.0
      ],
      "type": "VEC4"
    },
    {
      "bufferView": 1,
      "byteOffset": 15552,
      "componentType": 5126,
      "count": 143,
      "max": [
        0.6921730041503906,
        0.4627090096473694
      ],
      "min": [
        0.20889699459075928,
        0.16530700027942657
      ],
      "type": "VEC2"
    },
    {
      "bufferView": 0,
      "byteOffset": 41976,
      "componentType": 5125,
      "count": 507,
      "type": "SCALAR"
    },
    {
      "bufferView": 2,
      "byteOffset": 50088,
      "componentType": 5126,
      "count": 30,
      "max": [
        0.7108160257339478,
        0.4950299859046936,
        0.48993098735809326
      ],
      "min": [
        -0.49605900049209595,
        -0.2904540002346039,
        -0.4387359917163849
      ],
      "type": "VEC3"
    },
    {
      "bufferView": 2,
      "byteOffset": 50448,
      "componentType": 5126,
      "count": 30,
      "max": [
        0.7832592725753784,
        -0.09830047190189362,
        0.5700942277908325
      ],
      "min": [
        -0.6653139591217041,
        -0.9879400730133057,
        -0.6542031168937683
      ],
      "type": "VEC3"
    },
    {
      "bufferView": 3,
      "byteOffset": 33392,
      "componentType": 5126,
      "count": 30,
      "max": [
        0.8198369741439819,
        0.9942190051078796,
        -0.09726040065288544,
        1.0
      ],
      "min": [
        0.04547810181975365,
        -0.8733410239219666,
        -0.5729010105133057,
        1.0
      ],
      "type": "VEC4"
    },
    {
      "bufferView": 1,
      "byteOffset": 16696,
      "componentType": 5126,
      "count": 30,
      "max": [
        0.9325879812240601,
        0.10482600331306458
      ],
      "min": [
        0.4107860028743744,
        0.05808530002832413
      ],
      "type": "VEC2"
    },
    {
      "bufferView": 0,
      "byteOffset": 44004,
      "componentType": 5125,
      "count": 84,
      "type": "SCALAR"
    },
    {
      "bufferView": 2,
      "byteOffset": 50808,
      "componentType": 5126,
      "count": 640,
      "max": [
        0.354748010635376,
        0.11381199955940247,
        0.6526889801025391
      ],
      "min": [
        -0.10188300162553787,
        -0.31667399406433105,
        -0.6526889801025391
      ],
      "type": "VEC3"
    },
    {
      "bufferView": 2,
      "byteOffset": 58488,
      "componentType": 5126,
      "count": 640,
      "max": [
        1.0,
        0.9848157167434692,
        0.9848158359527588
      ],
      "min": [
        -1.0,
        -0.9848157167434692,
        -0.9848158359527588
      ],
      "type": "VEC3"
    },
    {
      "bufferView": 3,
      "byteOffset": 33872,
      "componentType": 5126,
      "count": 640,
      "max": [
        0.9999989867210388,
        0.5888749957084656,
        0.9998239874839783,
        1.0
      ],
      "min": [
        -1.0,
        -0.5923479795455933,
        -0.9998409748077393,
        1.0
      ],
      "type": "VEC4"
    },
    {
      "bufferView": 1,
      "byteOffset": 16936,
      "componentType": 5126,
      "count": 640,
      "max": [
        0.5799099802970886,
        0.9259200096130371
      ],
      "min": [
        0.0034362899605184793,
        0.27420100569725037
      ],
      "type": "VEC2"
    },
    {
      "bufferView": 0,
      "byteOffset": 44340,
      "componentType": 5125,
      "count": 1776,
      "type": "SCALAR"
    },
    {
      "bufferView": 2,
      "byteOffset": 66168,
      "componentType": 5126,
      "count": 44,
      "max": [
        -0.006226500030606985,
        -0.16143199801445007,
        0.6332169771194458
      ],
      "min": [
        -0.5845029950141907,
        -0.4663670063018799,
        -0.6348980069160461
      ],
      "type": "VEC3"
    },
    {
      "bufferView": 2,
      "byteOffset": 66696,
      "componentType": 5126,
      "count": 44,
      "max": [
        -0.1125001609325409,
        0.17939607799053192,
        0.9793977737426758
      ],
      "min": [
        -0.9825284481048584,
        0.1389981210231781,
        -0.9790013432502747
      ],
      "type": "VEC3"
    },
    {
      "bufferView": 3,
      "byteOffset": 44112,
      "componentType": 5126,
      "count": 44,
      "max": [
        0.9746909737586975,
        0.17068399488925934,
        -0.14198899269104004,
        1.0
      ],
      "min": [
        -0.972648024559021,
        -0.17267300188541412,
        -0.9976779818534851,
        1.0
      ],
      "type": "VEC4"
    },
    {
      "bufferView": 1,
      "byteOffset": 22056,
      "componentType": 5126,
      "count": 44,
      "max": [
        0.971921980381012,
        0.051220301538705826
      ],
      "min": [
        0.5662530064582825,
        0.0032808200921863317
      ],
      "type": "VEC2"
    },
    {
      "bufferView": 0,
      "byteOffset": 51444,
      "componentType": 5125,
      "count": 126,
      "type": "SCALAR"
    },
    {
      "bufferView": 2,
      "byteOffset": 67224,
      "componentType": 5126,
      "count": 30,
      "max": [
        0.7154099941253662,
        0.4554220139980316,
        0.44571399688720703
      ],
      "min": [
        -0.5095369815826416,
        -0.2907879948616028,
        -0.46390798687934875
      ],
      "type": "VEC3"
    },
    {
      "bufferView": 2,
      "byteOffset": 67584,
      "componentType": 5126,
      "count": 30,
      "max": [
        0.7976255416870117,
        -0.07319741696119308,
        0.6613766551017761
      ],
      "min": [
        -0.6444097757339478,
        -0.9884778261184692,
        -0.5667813420295715
      ],
      "type": "VEC3"
    },
    {
      "bufferView": 3,
      "byteOffset": 44816,
      "componentType": 5126,
      "count": 30,
      "max": [
        -0.07481429725885391,
        0.8555099964141846,
        -0.025886600837111473,
        1.0
      ],
      "min": [
        -0.8184710144996643,
        -0.9968609809875488,
        -0.5745239853858948,
        1.0
      ],
      "type": "VEC4"
    },
    {
      "bufferView": 1,
      "byteOffset": 22408,
      "componentType": 5126,
      "count": 30,
      "max": [
        0.5569549798965454,
        0.050460200756788254
      ],
      "min": [
        0.00596700981259346,
        0.0027979800943285227
      ],
      "type": "VEC2"
    },
    {
      "bufferView": 0,
      "byteOffset": 51948,
      "componentType": 5125,
      "count": 84,
      "type": "SCALAR"
    },
    {
      "bufferView": 2,
      "byteOffset": 67944,
      "componentType": 5126,
      "count": 18,
      "max": [
        0.21182399988174438,
        0.39713600277900696,
        0.5912700295448303
      ],
      "min": [
        0.041109099984169006,
        0.025344999507069588,
        -0.5929539799690247
      ],
      "type": "VEC3"
    },
    {
      "bufferView": 2,
      "byteOffset": 68160,
      "componentType": 5126,
      "count": 18,
      "max": [
        -0.0,
        -0.5559918284416199,
        0.8311878442764282
      ],
      "min": [
        -0.0,
        -1.0,
        -0.8311878442764282
      ],
      "type": "VEC3"
    },
    {
      "bufferView": 3,
      "byteOffset": 45296,
      "componentType": 5126,
      "count": 18,
      "max": [
        0.000842513982206583,
        0.8311870098114014,
        -0.5559920072555542,
        1.0
      ],
      "min": [
        0.0007959639769978821,
        -0.8311880230903625,
        -1.0,
        1.0
      ],
      "type": "VEC4"
    },
    {
      "bufferView": 1,
      "byteOffset": 22648,
      "componentType": 5126,
      "count": 18,
      "max": [
        0.40599799156188965,
        0.10459399968385696
      ],
      "min": [
        0.00793180987238884,
        0.05803760141134262
      ],
      "type": "VEC2"
    },
    {
      "bufferView": 0,
      "byteOffset": 52284,
      "componentType": 5125,
      "count": 48,
      "type": "SCALAR"
    },
    {
      "bufferView": 2,
      "byteOffset": 68376,
      "componentType": 5126,
      "count": 176,
      "max": [
        0.2806459963321686,
        -0.18604500591754913,
        0.6636729836463928
      ],
      "min": [
        -0.02778100036084652,
        -0.31480398774147034,
        -0.6636760234832764
      ],
      "type": "VEC3"
    },
    {
      "bufferView": 2,
      "byteOffset": 70488,
      "componentType": 5126,
      "count": 176,
      "max": [
        1.0,
        0.9799078106880188,
        0.9848158359527588
      ],
      "min": [
        -1.0,
        -0.9799078106880188,
        -0.9848158359527588
      ],
      "type": "VEC3"
    },
    {
      "bufferView": 3,
      "byteOffset": 45584,
      "componentType": 5126,
      "count": 176,
      "max": [
        0.999983012676239,
        0.5778399705886841,
        0.9975870251655579,
        1.0
      ],
      "min": [
        0.0,
        -0.5728480219841003,
        -0.9978780150413513,
        1.0
      ],
      "type": "VEC4"
    },
    {
      "bufferView": 1,
      "byteOffset": 22792,
      "componentType": 5126,
      "count": 176,
      "max": [
        0.6258249878883362,
        0.990140974521637
      ],
      "min": [
        0.3920229971408844,
        0.930429995059967
      ],
      "type": "VEC2"
    },
    {
      "bufferView": 0,
      "byteOffset": 52476,
      "componentType": 5125,
      "count": 504,
      "type": "SCALAR"
    }
  ],
  "asset": {
    "extras": {
      "author": "jura (https://sketchfab.com/ant_jura)",
      "license": "CC-BY-4.0 (http://creativecommons.org/licenses/by/4.0/)",
      "source": "https://sketchfab.com/3d-models/safety-helmet-17725e7ba38d4e4fadde777f4a9ba930",
      "title": "Safety Helmet"
    },
    "generator": "Sketchfab-12.66.0",
    "version": "2.0"
  },
  "bufferViews": [
    {
      "buffer": 0,
      "byteLength": 54492,
      "name": "floatBufferViews",
      "target": 34963
    },
    {
      "buffer": 0,
      "byteLength": 24200,
      "byteOffset": 54492,
      "byteStride": 8,
      "name": "floatBufferViews",
      "target": 34962
    },
    {
      "buffer": 0,
      "byteLength": 72600,
      "byteOffset": 78692,
      "byteStride": 12,
      "name": "floatBufferViews",
      "target": 34962
    },
    {
      "buffer": 0,
      "byteLength": 48400,
      "byteOffset": 151292,
      "byteStride": 16,
      "name": "floatBufferViews",
      "target": 34962
    }
  ],
  "buffers": [
    {
      "byteLength": 199692,
      "uri": "scene.bin"
    }
  ],
  "images": [
    {
      "uri": "textures/DefaultMaterial_baseColor.png"
    },
    {
      "uri": "textures/DefaultMaterial_metallicRoughness.png"
    },
    {
      "uri": "textures/DefaultMaterial_normal.jpeg"
    }
  ],
  "materials": [
    {
      "alphaMode": "BLEND",
      "doubleSided": true,
      "name": "DefaultMaterial",
      "normalTexture": {
        "index": 2
      },
      "occlusionTexture": {
        "index": 1
      },
      "pbrMetallicRoughness": {
        "baseColorTexture": {
          "index": 0
        },
        "metallicRoughnessTexture": {
          "index": 1
        }
      }
    }
  ],
  "meshes": [
    {
      "name": "defaultMaterial",
      "primitives": [
        {
          "attributes": {
            "NORMAL": 1,
            "POSITION": 0,
            "TANGENT": 2,
            "TEXCOORD_0": 3
          },
          "indices": 4,
          "material": 0,
          "mode": 4
        }
      ]
    },
    {
      "name": "defaultMaterial",
      "primitives": [
        {
          "attributes": {
            "NORMAL": 6,
            "POSITION": 5,
            "TANGENT": 7,
            "TEXCOORD_0": 8
          },
          "indices": 9,
          "material": 0,
          "mode": 4
        }
      ]
    },
    {
      "name": "defaultMaterial",
      "primitives": [
        {
          "attributes": {
            "NORMAL": 11,
            "POSITION": 10,
            "TANGENT": 12,
            "TEXCOORD_0": 13
          },
          "indices": 14,
          "material": 0,
          "mode": 4
        }
      ]
    },
    {
      "name": "defaultMaterial",
      "primitives": [
        {
          "attributes": {
            "NORMAL": 16,
            "POSITION": 15,
            "TANGENT": 17,
            "TEXCOORD_0": 18
          },
          "indices": 19,
          "material": 0,
          "mode": 4
        }
      ]
    },
    {
      "name": "defaultMaterial",
      "primitives": [
        {
          "attributes": {
            "NORMAL": 21,
            "POSITION": 20,
            "TANGENT": 22,
            "TEXCOORD_0": 23
          },
          "indices": 24,
          "material": 0,
          "mode": 4
        }
      ]
    },
    {
      "name": "defaultMaterial",
      "primitives": [
        {
          "attributes": {
            "NORMAL": 26,
            "POSITION": 25,
            "TANGENT": 27,
            "TEXCOORD_0": 28
          },
          "indices": 29,
          "material": 0,
          "mode": 4
        }
      ]
    },
    {
      "name": "defaultMaterial",
      "primitives": [
        {
          "attributes": {
            "NORMAL": 31,
            "POSITION": 30,
            "TANGENT": 32,
            "TEXCOORD_0": 33
          },
          "indices": 34,
          "material": 0,
          "mode": 4
        }
      ]
    },
    {
      "name": "defaultMaterial",
      "primitives": [
        {
          "attributes": {
            "NORMAL": 36,
            "POSITION": 35,
            "TANGENT": 37,
            "TEXCOORD_0": 38
          },
          "indices": 39,
          "material": 0,
          "mode": 4
        }
      ]
    },
    {
      "name": "defaultMaterial",
      "primitives": [
        {
          "attributes": {
            "NORMAL": 41,
            "POSITION": 40,
            "TANGENT": 42,
            "TEXCOORD_0": 43
          },
          "indices": 44,
          "material": 0,
          "mode": 4
        }
      ]
    }
  ],
  "nodes": [
    {
      "children": [
        1
      ],
      "matrix": [
        1.0,
        0.0,
        0.0,
        0.0,
        0.0,
        2.220446049250313e-16,
        -1.0,
        0.0,
        0.0,
        1.0,
        2.220446049250313e-16,
        0.0,
        0.0,
        0.0,
        0.0,
        1.0
      ],
      "name": "Sketchfab_model"
    },
    {
      "children": [
        2,
        4,
        6,
        8,
        10,
        12,
        14,
        16,
        18
      ],
      "matrix": [
        1.0,
        0.0,
        0.0,
        0.0,
        0.0,
        -4.371139006309477e-08,
        0.999999999999999,
        0.0,
        0.0,
        -0.999999999999999,
        -4.371139006309477e-08,
        0.0,
        0.0,
        0.0,
        0.0,
        1.0
      ],
      "name": "Collada visual scene group"
    },
    {
      "children": [
        3
      ],
      "name": "g"
    },
    {
      "mesh": 0,
      "name": "defaultMaterial"
    },
    {
      "children": [
        5
      ],
      "name": "g"
    },
    {
      "mesh": 1,
      "name": "defaultMaterial"
    },
    {
      "children": [
        7
      ],
      "name": "g"
    },
    {
      "mesh": 2,
      "name": "defaultMaterial"
    },
    {
      "children": [
        9
      ],
      "name": "g"
    },
    {
      "mesh": 3,
      "name": "defaultMaterial"
    },
    {
      "children": [
        11
      ],
      "name": "g"
    },
    {
      "mesh": 4,
      "name": "defaultMaterial"
    },
    {
      "children": [
        13
      ],
      "name": "g"
    },
    {
      "mesh": 5,
      "name": "defaultMaterial"
    },
    {
      "children": [
        15
      ],
      "name": "g"
    },
    {
      "mesh": 6,
      "name": "defaultMaterial"
    },
    {
      "children": [
        17
      ],
      "name": "g"
    },
    {
      "mesh": 7,
      "name": "defaultMaterial"
    },
    {
      "children": [
        19
      ],
      "name": "g"
    },
    {
      "mesh": 8,
      "name": "defaultMaterial"
    }
  ],
  "samplers": [
    {
      "magFilter": 9729,
      "minFilter": 9987,
      "wrapS": 10497,
      "wrapT": 10497
    }
  ],
  "scene": 0,
  "scenes": [
    {
      "name": "Sketchfab_Scene",
      "nodes": [
        0
      ]
    }
  ],
  "textures": [
    {
      "sampler": 0,
      "source": 0
    },
    {
      "sampler": 0,
      "source": 1
    },
    {
      "sampler": 0,
      "source": 2
    }
  ]
}
